<mxfile host="app.diagrams.net" agent="Mozilla/5.0 (Macintosh; Intel Mac OS X 10_15_7) AppleWebKit/537.36 (KHTML, like Gecko) Chrome/129.0.0.0 Safari/537.36" version="24.7.17">
  <diagram name="Page-1" id="aGgJBT5CiY7KS0mMc9hC">
    <mxGraphModel dx="1026" dy="650" grid="1" gridSize="10" guides="1" tooltips="1" connect="1" arrows="1" fold="1" page="1" pageScale="1" pageWidth="850" pageHeight="1100" math="0" shadow="0">
      <root>
        <mxCell id="0" />
        <mxCell id="1" parent="0" />
        <mxCell id="f1BRE4CKfehgLJbUnWQz-10" style="edgeStyle=orthogonalEdgeStyle;rounded=0;orthogonalLoop=1;jettySize=auto;html=1;entryX=0;entryY=0.25;entryDx=0;entryDy=0;" edge="1" parent="1" source="f1BRE4CKfehgLJbUnWQz-1" target="f1BRE4CKfehgLJbUnWQz-4">
          <mxGeometry relative="1" as="geometry" />
        </mxCell>
        <mxCell id="f1BRE4CKfehgLJbUnWQz-11" value="1" style="edgeLabel;html=1;align=center;verticalAlign=middle;resizable=0;points=[];" vertex="1" connectable="0" parent="f1BRE4CKfehgLJbUnWQz-10">
          <mxGeometry x="-0.7207" y="1" relative="1" as="geometry">
            <mxPoint as="offset" />
          </mxGeometry>
        </mxCell>
        <mxCell id="f1BRE4CKfehgLJbUnWQz-12" value="0.*" style="edgeLabel;html=1;align=center;verticalAlign=middle;resizable=0;points=[];" vertex="1" connectable="0" parent="f1BRE4CKfehgLJbUnWQz-10">
          <mxGeometry x="0.7307" y="1" relative="1" as="geometry">
            <mxPoint y="1" as="offset" />
          </mxGeometry>
        </mxCell>
        <mxCell id="f1BRE4CKfehgLJbUnWQz-1" value="Clients" style="swimlane;childLayout=stackLayout;horizontal=1;startSize=50;horizontalStack=0;rounded=1;fontSize=14;fontStyle=0;strokeWidth=2;resizeParent=0;resizeLast=1;shadow=0;dashed=0;align=center;arcSize=4;whiteSpace=wrap;html=1;" vertex="1" parent="1">
          <mxGeometry x="170" y="88" width="200" height="160" as="geometry" />
        </mxCell>
        <mxCell id="f1BRE4CKfehgLJbUnWQz-2" value="+id - UUID&lt;div&gt;&lt;div&gt;+name - VARCHAR(150)&lt;/div&gt;&lt;div&gt;+country_code - VARCHAR(5)&lt;/div&gt;&lt;div&gt;+currency_code - VARCHAR(5)&lt;/div&gt;&lt;div&gt;+created_at - DATETIME&lt;/div&gt;&lt;div&gt;+updated_at - DATETIME&lt;/div&gt;&lt;/div&gt;" style="align=left;strokeColor=none;fillColor=none;spacingLeft=4;fontSize=12;verticalAlign=top;resizable=0;rotatable=0;part=1;html=1;" vertex="1" parent="f1BRE4CKfehgLJbUnWQz-1">
          <mxGeometry y="50" width="200" height="110" as="geometry" />
        </mxCell>
        <mxCell id="f1BRE4CKfehgLJbUnWQz-3" value="Jobs" style="swimlane;childLayout=stackLayout;horizontal=1;startSize=50;horizontalStack=0;rounded=1;fontSize=14;fontStyle=0;strokeWidth=2;resizeParent=0;resizeLast=1;shadow=0;dashed=0;align=center;arcSize=4;whiteSpace=wrap;html=1;" vertex="1" parent="1">
          <mxGeometry x="570" y="90" width="210" height="160" as="geometry" />
        </mxCell>
        <mxCell id="f1BRE4CKfehgLJbUnWQz-4" value="+id - UUID&lt;div&gt;+clientId - UUID&lt;/div&gt;&lt;div&gt;+title - VARCHAR(100)&lt;br&gt;+description - VARCHAR(5000)&lt;/div&gt;&lt;div&gt;+vacancies - INTEGER&lt;/div&gt;&lt;div&gt;+created_at - DATETIME&lt;/div&gt;&lt;div&gt;+updated_at - DATETIME&lt;/div&gt;" style="align=left;strokeColor=none;fillColor=none;spacingLeft=4;fontSize=12;verticalAlign=top;resizable=0;rotatable=0;part=1;html=1;" vertex="1" parent="f1BRE4CKfehgLJbUnWQz-3">
          <mxGeometry y="50" width="210" height="110" as="geometry" />
        </mxCell>
        <mxCell id="f1BRE4CKfehgLJbUnWQz-16" style="edgeStyle=orthogonalEdgeStyle;rounded=0;orthogonalLoop=1;jettySize=auto;html=1;entryX=1;entryY=0.25;entryDx=0;entryDy=0;" edge="1" parent="1" source="f1BRE4CKfehgLJbUnWQz-5" target="f1BRE4CKfehgLJbUnWQz-8">
          <mxGeometry relative="1" as="geometry" />
        </mxCell>
        <mxCell id="f1BRE4CKfehgLJbUnWQz-17" value="1" style="edgeLabel;html=1;align=center;verticalAlign=middle;resizable=0;points=[];" vertex="1" connectable="0" parent="f1BRE4CKfehgLJbUnWQz-16">
          <mxGeometry x="-0.706" y="1" relative="1" as="geometry">
            <mxPoint as="offset" />
          </mxGeometry>
        </mxCell>
        <mxCell id="f1BRE4CKfehgLJbUnWQz-18" value="1" style="edgeLabel;html=1;align=center;verticalAlign=middle;resizable=0;points=[];" vertex="1" connectable="0" parent="f1BRE4CKfehgLJbUnWQz-16">
          <mxGeometry x="0.664" relative="1" as="geometry">
            <mxPoint as="offset" />
          </mxGeometry>
        </mxCell>
        <mxCell id="f1BRE4CKfehgLJbUnWQz-5" value="Applications" style="swimlane;childLayout=stackLayout;horizontal=1;startSize=50;horizontalStack=0;rounded=1;fontSize=14;fontStyle=0;strokeWidth=2;resizeParent=0;resizeLast=1;shadow=0;dashed=0;align=center;arcSize=4;whiteSpace=wrap;html=1;" vertex="1" parent="1">
          <mxGeometry x="570" y="330" width="210" height="160" as="geometry" />
        </mxCell>
        <mxCell id="f1BRE4CKfehgLJbUnWQz-6" value="+id - UUID&lt;div&gt;+jobId - UUID&lt;/div&gt;&lt;div&gt;+applicant_id - UUID&lt;/div&gt;&lt;div&gt;+expected_salary - BigDecimal(22, 4)&lt;br&gt;+resume_id - VARCHAR(100)&lt;/div&gt;&lt;div&gt;+created_at - DATETIME&lt;/div&gt;&lt;div&gt;+updated_at - DATETIME&lt;/div&gt;" style="align=left;strokeColor=none;fillColor=none;spacingLeft=4;fontSize=12;verticalAlign=top;resizable=0;rotatable=0;part=1;html=1;" vertex="1" parent="f1BRE4CKfehgLJbUnWQz-5">
          <mxGeometry y="50" width="210" height="110" as="geometry" />
        </mxCell>
        <mxCell id="f1BRE4CKfehgLJbUnWQz-7" value="Applicants" style="swimlane;childLayout=stackLayout;horizontal=1;startSize=50;horizontalStack=0;rounded=1;fontSize=14;fontStyle=0;strokeWidth=2;resizeParent=0;resizeLast=1;shadow=0;dashed=0;align=center;arcSize=4;whiteSpace=wrap;html=1;" vertex="1" parent="1">
          <mxGeometry x="170" y="332" width="210" height="160" as="geometry" />
        </mxCell>
        <mxCell id="f1BRE4CKfehgLJbUnWQz-8" value="+id - UUID&lt;div&gt;+name - VARCHAR(100)&lt;/div&gt;&lt;div&gt;+email - VARCHAR(100)&lt;/div&gt;&lt;div&gt;+mobile - VARCHAR(15)&lt;/div&gt;&lt;div&gt;+resume_id - VARCHAR(100)&lt;/div&gt;&lt;div&gt;+created_at - DATETIME&lt;/div&gt;&lt;div&gt;+updated_at - DATETIME&lt;/div&gt;" style="align=left;strokeColor=none;fillColor=none;spacingLeft=4;fontSize=12;verticalAlign=top;resizable=0;rotatable=0;part=1;html=1;" vertex="1" parent="f1BRE4CKfehgLJbUnWQz-7">
          <mxGeometry y="50" width="210" height="110" as="geometry" />
        </mxCell>
        <mxCell id="f1BRE4CKfehgLJbUnWQz-13" style="edgeStyle=orthogonalEdgeStyle;rounded=0;orthogonalLoop=1;jettySize=auto;html=1;entryX=0.5;entryY=0;entryDx=0;entryDy=0;" edge="1" parent="1" source="f1BRE4CKfehgLJbUnWQz-4" target="f1BRE4CKfehgLJbUnWQz-5">
          <mxGeometry relative="1" as="geometry" />
        </mxCell>
        <mxCell id="f1BRE4CKfehgLJbUnWQz-14" value="1" style="edgeLabel;html=1;align=center;verticalAlign=middle;resizable=0;points=[];" vertex="1" connectable="0" parent="f1BRE4CKfehgLJbUnWQz-13">
          <mxGeometry x="-0.6" y="1" relative="1" as="geometry">
            <mxPoint as="offset" />
          </mxGeometry>
        </mxCell>
        <mxCell id="f1BRE4CKfehgLJbUnWQz-15" value="0.*" style="edgeLabel;html=1;align=center;verticalAlign=middle;resizable=0;points=[];" vertex="1" connectable="0" parent="f1BRE4CKfehgLJbUnWQz-13">
          <mxGeometry x="0.5" y="2" relative="1" as="geometry">
            <mxPoint as="offset" />
          </mxGeometry>
        </mxCell>
      </root>
    </mxGraphModel>
  </diagram>
</mxfile>
